<?xml version="1.0" encoding="utf-8"?>
<!-- Generator: Adobe Illustrator 26.2.1, SVG Export Plug-In . SVG Version: 6.00 Build 0)  -->
<svg version="1.1" id="Layer_1" xmlns="http://www.w3.org/2000/svg" xmlns:xlink="http://www.w3.org/1999/xlink" x="0px" y="0px"
	 width="600" height="1400" viewBox="0 0 600 1400" style="enable-background:new 0 0 600 1400;" xml:space="preserve">
<style type="text/css">
	.st0 {
    width: 200px;
    height: 200px;
    animation: play 0.7s steps(7) infinite;
    fill: #a80666;
    fill-opacity: 0.05;
    stroke: #fff;
    stroke-opacity: 70%;
    filter: 
        drop-shadow(0 0 .2rem rgb(255, 255, 255))
        drop-shadow(0 0 .3rem #0fa)
        drop-shadow(0 0 .7rem #0fa);
    transition: opacity 100ms linear;
}
	.st1 {
    width: 200px;
    height: 200px;
    animation: play 0.7s steps(7) infinite;
    fill: #a80666;
    fill-opacity: 0.05;
    stroke: #fff;
    stroke-opacity: 70%;
    filter: 
        drop-shadow(0 0 .2rem rgb(255, 255, 255))
        drop-shadow(0 0 .3rem #f09)
        drop-shadow(0 0 .7rem #f09);
    transition: opacity 100ms linear;
}
	.st2 {
    width: 200px;
    height: 200px;
    animation: play 0.7s steps(7) infinite;
    fill: #a80666;
    fill-opacity: 0.05;
    stroke: #fff;
    stroke-opacity: 70%;
    filter: 
        drop-shadow(0 0 .2rem rgb(255, 255, 255))
        drop-shadow(0 0 .3rem #5271ff)
        drop-shadow(0 0 .7rem #5271ff);
    transition: opacity 100ms linear;
}
</style>
<path class="st1" d="M301.8,270.3c4,0,17.4,0,28.5,4.6c9.9,4.1,22.8,17.2,25.3,19.2c7,5.5,12.5,5.5,19.3,10.6
	c4.1,3.1,10.2,7.7,8.9,17.2c-0.3,2.2-12.5,11.3-20.8,14c-14.5,4.6-39.2,6.3-61.6,6.3h-2.8c-22.4,0-47.1-1.7-61.6-6.3
	c-8.3-2.7-20.5-11.7-20.8-14c-1.2-9.5,4.8-14.1,8.9-17.2c6.8-5.1,12.2-5.1,19.3-10.6c2.6-2,15.4-15.2,25.3-19.2
	c11.2-4.6,24.5-4.6,28.5-4.6H301.8z"/>
<path class="st1" d="M301.4,459.3c4.2,0,28.8,4.2,41.2,11.6c9.8,5.8,24,18.6,28.6,25.8c4.2,6.7,14.4,6.4,16.4,8.3
	c2,1.9-0.1,6.1-0.1,6.1c-2.4,2.9-22,12.3-30.8,15.2c-15.2,5.1-32.3,11.3-55.8,11.3H299c-23.5,0-40.6-6.2-55.8-11.3
	c-8.7-2.9-28.4-12.2-30.8-15.2c0,0-2.1-4.3-0.1-6.1c2-1.9,12.2-1.6,16.4-8.3c4.6-7.3,18.8-20,28.6-25.8
	c12.5-7.5,37.1-11.6,41.2-11.6H301.4z"/>
<path class="st1" d="M301,663.5c4.2,0,35.7-1.6,52.6,11.4c10.6,8.1,16.9,21.7,19.4,26.3c3.1,5.9,10,7.5,13.4,9.8
	c3,2-3.1,6.1-3.1,6.1c-8.6,5.8-23.6,11.9-32.4,14.2c-16,4.3-26.7,5.2-50.2,5.2h-1.2c-23.5,0-34.2-0.9-50.2-5.2
	c-8.8-2.4-23.8-8.4-32.4-14.2c0,0-6.1-4.1-3.1-6.1c3.4-2.2,10.3-3.9,13.4-9.8c2.5-4.7,8.8-18.2,19.4-26.3
	c16.9-13,48.4-11.4,52.6-11.4H301z"/>
<path class="st1" d="M301.3,853.4c3.9,0,29.5-0.4,46.7,10.6c8.5,5.5,21.5,16.1,23.2,30.9c1.7,14.9-9.9,22.1,2.7,27.3
	c2,0.8-1.2,6-1.2,6c-4.4,8.5-24.9,13.3-26,13.6c-6.6,1.7-24.4,4.4-45.8,4.4h-1.8c-21.4,0-39.2-2.7-45.8-4.4
	c-1.1-0.3-21.5-5.1-26-13.6c0,0-3.2-5.2-1.2-6c12.7-5.3,1.1-12.5,2.7-27.3c1.7-14.8,14.6-25.4,23.2-30.9
	c17.2-11.1,42.8-10.6,46.7-10.6H301.3z"/>
<path class="st1" d="M300.9,1055c4.2,0,27.3-1.7,44.6,8.6c9.3,5.5,23.3,13.5,23.1,39.2c-0.1,17.2-20.9,25.8-9.6,34.3
	c1.9,1.5,1.5,4.3,1.5,4.3c-8.3,7.5-34.4,7.2-35.7,7.3c-7.7,0.4-12.2-0.2-24.4-0.2h-0.9c-12.2,0-16.7,0.7-24.4,0.2
	c-1.2-0.1-27.4,0.2-35.7-7.3c0,0-0.4-2.8,1.5-4.3c11.3-8.5-9.5-17.1-9.6-34.3c-0.2-25.7,13.8-33.7,23.1-39.2
	c17.3-10.2,40.4-8.6,44.6-8.6H300.9z"/>
<path class="st1" d="M300.6,1256.4c4.3,0,11.9,1.2,15.9,2.2c4.5,1.2,14.5,7.5,18.5,9.8c5,2.9,13.2,4,25.5,13.9
	c9.6,7.8,16.6,13.4,14.9,27.8c-0.8,6.4-10.8,9.8-12.8,12.9c-9.6,14.7-37.6,22-61.9,22h-1.1c-24.3,0-52.3-7.3-61.9-22
	c-2.1-3.1-12-6.6-12.8-12.9c-1.7-14.4,5.3-20,14.9-27.8c12.3-10,20.5-11,25.5-13.9c4-2.3,14-8.6,18.5-9.8c4-1.1,11.5-2.2,15.9-2.2
	H300.6z"/>
<g id="Frame_1">
	<path class="st1" d="M301.2,59.7c4.6,0,9.6,0.1,13.9,1.1c4.8,1.2,14.6,5.9,18.8,8.2c5.3,2.9,17.7,3.8,30.8,13.6
		c10.2,7.7,16.2,21.8,16.1,34.9c0,2.5-9.2,9.5-18.2,13.6c-16.1,7.4-35.5,8.7-61.3,8.7h-2.4c-25.8,0-45.2-1.4-61.3-8.7
		c-9.1-4.2-18.2-11.1-18.2-13.6c-0.1-13.1,5.9-27.2,16.1-34.9c13.1-9.8,25.4-10.7,30.8-13.6c4.2-2.3,14-7,18.8-8.2
		c4.3-1,9.3-1.1,13.9-1.1L301.2,59.7L301.2,59.7z"/>
</g>
<path class="st2" d="M501.1,270.9c4,0,17.4,0,28.5,4.6c9.9,4.1,22.8,17.2,25.3,19.2c7,5.5,12.5,5.5,19.3,10.6
	c4.1,3.1,10.2,7.7,8.9,17.2c-0.3,2.2-12.5,11.3-20.8,14c-14.5,4.6-39.2,6.3-61.6,6.3h-2.8c-22.4,0-47.1-1.7-61.6-6.3
	c-8.3-2.7-20.5-11.7-20.8-14c-1.2-9.5,4.8-14.1,8.9-17.2c6.8-5.1,12.2-5.1,19.3-10.6c2.6-2,15.4-15.2,25.3-19.2
	c11.2-4.6,24.5-4.6,28.5-4.6H501.1z"/>
<path class="st2" d="M500.6,460c4.2,0,28.8,4.2,41.2,11.6c9.8,5.8,24,18.6,28.6,25.8c4.2,6.7,14.4,6.4,16.4,8.3
	c2,1.9-0.1,6.1-0.1,6.1c-2.4,2.9-22,12.3-30.8,15.2c-15.2,5.1-32.3,11.3-55.8,11.3h-1.9c-23.5,0-40.6-6.2-55.8-11.3
	c-8.7-2.9-28.4-12.2-30.8-15.2c0,0-2.1-4.3-0.1-6.1c2-1.9,12.2-1.6,16.4-8.3c4.6-7.3,18.8-20,28.6-25.8
	c12.5-7.5,37.1-11.6,41.2-11.6H500.6z"/>
<path class="st2" d="M500.3,664.2c4.2,0,35.7-1.6,52.6,11.4c10.6,8.1,16.9,21.7,19.4,26.3c3.1,5.9,10,7.5,13.4,9.8
	c3,2-3.1,6.1-3.1,6.1c-8.6,5.8-23.6,11.9-32.4,14.2c-16,4.3-26.7,5.2-50.2,5.2h-1.2c-23.5,0-34.2-0.9-50.2-5.2
	c-8.8-2.4-23.8-8.4-32.4-14.2c0,0-6.1-4.1-3.1-6.1c3.4-2.2,10.3-3.9,13.4-9.8c2.5-4.7,8.8-18.2,19.4-26.3
	c16.9-13,48.4-11.4,52.6-11.4H500.3z"/>
<path class="st2" d="M500.6,854.1c3.9,0,29.5-0.4,46.7,10.6c8.5,5.5,21.5,16.1,23.2,30.9c1.7,14.9-9.9,22.1,2.7,27.3
	c2,0.8-1.2,6-1.2,6c-4.5,8.5-24.9,13.3-26,13.6c-6.6,1.7-24.4,4.4-45.8,4.4h-1.8c-21.4,0-39.2-2.7-45.8-4.4
	c-1.1-0.3-21.5-5.1-26-13.6c0,0-3.2-5.2-1.2-6c12.7-5.3,1.1-12.5,2.7-27.3c1.7-14.8,14.6-25.4,23.2-30.9
	c17.2-11.1,42.8-10.6,46.7-10.6H500.6z"/>
<path class="st2" d="M500.2,1055.6c4.2,0,27.3-1.7,44.6,8.6c9.3,5.5,23.3,13.5,23.1,39.2c-0.1,17.2-20.9,25.8-9.7,34.3
	c1.9,1.5,1.5,4.3,1.5,4.3c-8.3,7.5-34.4,7.2-35.7,7.3c-7.7,0.4-12.2-0.2-24.4-0.2h-0.9c-12.2,0-16.7,0.7-24.4,0.2
	c-1.2-0.1-27.4,0.2-35.7-7.3c0,0-0.4-2.8,1.5-4.3c11.3-8.5-9.5-17.1-9.6-34.3c-0.2-25.7,13.8-33.7,23.1-39.2
	c17.3-10.2,40.4-8.6,44.6-8.6H500.2z"/>
<path class="st2" d="M499.9,1257c4.3,0,11.9,1.2,15.9,2.2c4.5,1.2,14.5,7.5,18.5,9.8c5,2.9,13.2,4,25.5,13.9
	c9.6,7.8,16.6,13.4,14.9,27.8c-0.8,6.4-10.8,9.8-12.8,12.9c-9.6,14.7-37.6,22-61.9,22h-1.1c-24.3,0-52.3-7.3-61.9-22
	c-2.1-3.1-12-6.6-12.8-12.9c-1.7-14.4,5.3-20,14.9-27.8c12.3-10,20.5-11,25.5-13.9c4-2.3,14-8.6,18.5-9.8c4-1.1,11.5-2.2,15.9-2.2
	H499.9z"/>
<g id="Frame_1_00000119824234580731286580000015256864274525812891_">
	<path class="st2" d="M500.5,60.3c4.6,0,9.6,0.1,13.9,1.1c4.8,1.2,14.6,5.9,18.8,8.2c5.3,2.9,17.7,3.8,30.8,13.6
		c10.2,7.7,16.2,21.8,16.1,34.9c0,2.5-9.2,9.5-18.2,13.6c-16.1,7.4-35.5,8.7-61.3,8.7h-2.5c-25.8,0-45.2-1.4-61.3-8.7
		c-9.1-4.2-18.2-11.1-18.2-13.6c-0.1-13.1,5.9-27.2,16.1-34.9c13.1-9.8,25.5-10.7,30.8-13.6c4.2-2.3,14-7,18.8-8.2
		c4.3-1,9.3-1.1,13.9-1.1L500.5,60.3L500.5,60.3z"/>
</g>
<path class="st0" d="M101.7,270.6c4,0,17.4,0,28.5,4.6c9.9,4.1,22.8,17.2,25.3,19.2c7,5.5,12.5,5.5,19.3,10.6
	c4.1,3.1,10.2,7.7,8.9,17.2c-0.3,2.2-12.5,11.3-20.8,14c-14.5,4.6-39.2,6.3-61.6,6.3h-2.8c-22.4,0-47.1-1.7-61.6-6.3
	c-8.3-2.7-20.5-11.7-20.8-14c-1.2-9.5,4.8-14.1,8.9-17.2c6.8-5.1,12.2-5.1,19.3-10.6c2.6-2,15.4-15.2,25.3-19.2
	c11.2-4.6,24.5-4.6,28.5-4.6H101.7z"/>
<path class="st0" d="M101.3,459.6c4.2,0,28.8,4.2,41.2,11.6c9.8,5.8,24,18.6,28.6,25.8c4.2,6.7,14.4,6.4,16.4,8.3
	c2,1.9-0.1,6.1-0.1,6.1c-2.4,2.9-22.1,12.3-30.8,15.2c-15.2,5.1-32.3,11.3-55.8,11.3H99c-23.5,0-40.6-6.2-55.8-11.3
	c-8.7-2.9-28.4-12.2-30.7-15.2c0,0-2.1-4.3-0.1-6.1c2-1.9,12.2-1.6,16.4-8.3c4.6-7.3,18.8-20,28.6-25.8
	c12.5-7.5,37.1-11.6,41.2-11.6H101.3z"/>
<path class="st0" d="M100.9,663.8c4.2,0,35.7-1.6,52.6,11.4c10.6,8.1,16.9,21.7,19.4,26.3c3.1,5.9,10,7.5,13.4,9.8
	c3,2-3.1,6.1-3.1,6.1c-8.6,5.8-23.6,11.9-32.4,14.2c-16,4.3-26.7,5.2-50.2,5.2h-1.2c-23.5,0-34.2-0.9-50.2-5.2
	c-8.8-2.4-23.8-8.4-32.4-14.2c0,0-6.1-4.1-3.1-6.1c3.4-2.2,10.3-3.9,13.4-9.8c2.5-4.7,8.7-18.2,19.4-26.3
	c16.9-13,48.4-11.4,52.6-11.4H100.9z"/>
<path class="st0" d="M101.2,853.7c3.8,0,29.5-0.4,46.7,10.6c8.5,5.5,21.5,16.1,23.2,30.9c1.7,14.9-9.9,22.1,2.7,27.3
	c2,0.8-1.2,6-1.2,6c-4.4,8.5-24.9,13.3-26,13.6c-6.6,1.7-24.4,4.4-45.8,4.4H99c-21.4,0-39.2-2.7-45.8-4.4c-1.1-0.3-21.5-5.1-26-13.6
	c0,0-3.2-5.2-1.2-6c12.7-5.3,1.1-12.5,2.7-27.3c1.7-14.8,14.6-25.4,23.2-30.9c17.2-11.1,42.8-10.6,46.7-10.6H101.2z"/>
<path class="st0" d="M100.8,1055.3c4.2,0,27.3-1.7,44.6,8.6c9.3,5.5,23.3,13.5,23.1,39.2c-0.1,17.2-20.9,25.8-9.6,34.3
	c1.9,1.5,1.5,4.3,1.5,4.3c-8.3,7.5-34.4,7.2-35.7,7.3c-7.7,0.4-12.2-0.2-24.4-0.2h-0.9c-12.2,0-16.7,0.7-24.4,0.2
	c-1.2-0.1-27.4,0.2-35.7-7.3c0,0-0.4-2.8,1.5-4.3c11.3-8.5-9.5-17.1-9.6-34.3c-0.2-25.7,13.8-33.7,23.1-39.2
	c17.3-10.2,40.4-8.6,44.6-8.6H100.8z"/>
<path class="st0" d="M100.5,1256.7c4.3,0,11.8,1.2,15.9,2.2c4.5,1.2,14.5,7.5,18.5,9.8c5,2.9,13.2,4,25.5,13.9
	c9.6,7.8,16.6,13.4,14.9,27.8c-0.8,6.4-10.8,9.8-12.8,12.9c-9.6,14.7-37.6,22-61.9,22h-1.1c-24.3,0-52.3-7.3-61.9-22
	c-2.1-3.1-12-6.6-12.8-12.9c-1.7-14.4,5.3-20,14.9-27.8c12.3-10,20.5-11,25.5-13.9c4-2.3,14-8.6,18.5-9.8c4-1.1,11.6-2.2,15.9-2.2
	H100.5z"/>
<g id="Frame_1_00000091002902764178833980000015817481644056798632_">
	<path class="st0" d="M101.2,60c4.6,0,9.6,0.1,13.9,1.1c4.8,1.2,14.6,5.9,18.8,8.2c5.3,2.9,17.7,3.8,30.8,13.6
		c10.2,7.7,16.2,21.8,16.1,34.9c0,2.5-9.2,9.5-18.2,13.6c-16.1,7.4-35.5,8.7-61.3,8.7h-2.4c-25.8,0-45.2-1.4-61.3-8.7
		c-9.1-4.2-18.2-11.1-18.2-13.6C19,104.6,25,90.5,35.2,82.9C48.3,73,60.7,72.1,66,69.2c4.2-2.3,14-7,18.8-8.2
		c4.3-1,9.3-1.1,13.9-1.1L101.2,60L101.2,60z"/>
</g>
</svg>
