<?xml version="1.0" encoding="utf-8"?>
<!-- Generator: Adobe Illustrator 26.2.1, SVG Export Plug-In . SVG Version: 6.00 Build 0)  -->
<svg version="1.1" id="Layer_1" xmlns="http://www.w3.org/2000/svg" xmlns:xlink="http://www.w3.org/1999/xlink" x="0px" y="0px"
	 width="200" height="1400" viewBox="0 0 200 1400" style="enable-background:new 0 0 200 1400;" xml:space="preserve">
<style type="text/css">
.st0 {
    width: 200px;
    height: 200px;
    animation: play 0.7s steps(7) infinite;
    fill: #0c9865;
    fill-opacity: 0.05;
    stroke: #fff;
    stroke-opacity: 70%;
    filter: 
        drop-shadow(0 0 .2rem rgb(255, 255, 255))
        drop-shadow(0 0 .3rem #0fa)
        drop-shadow(0 0 .7rem #0fa);
    transition: opacity 100ms linear;
}
<!-- .st0:hover {
    stroke: #fff;
    fill-opacity: 0.3;
    filter: 
        drop-shadow(0 0 .2rem #ffe4f4)
        drop-shadow(0 0 .7rem #0fa)
        drop-shadow(0 0 1.2rem #0fa);
    transition: opacity 100ms linear; 
} -->
</style>
<path class="st0" d="M101.77,270.26c3.99,0,17.36-0.01,28.51,4.57c9.9,4.07,22.77,17.23,25.33,19.25
	c7.04,5.54,12.51,5.55,19.26,10.63c4.14,3.12,10.18,7.7,8.93,17.25c-0.29,2.24-12.5,11.29-20.81,13.96
	c-14.47,4.65-39.16,6.33-61.61,6.33h-2.75c-22.44,0-47.14-1.68-61.61-6.33c-8.31-2.67-20.52-11.72-20.81-13.96
	c-1.25-9.55,4.79-14.14,8.93-17.25c6.75-5.08,12.22-5.09,19.26-10.63c2.56-2.02,15.42-15.18,25.33-19.25
	c11.15-4.58,24.52-4.57,28.51-4.57H101.77z"/>
<path class="st0" d="M101.35,459.33c4.18,0,28.75,4.17,41.23,11.62c9.76,5.83,23.98,18.56,28.59,25.83
	c4.23,6.67,14.39,6.36,16.41,8.26c1.99,1.86-0.08,6.13-0.08,6.13c-2.38,2.93-22.05,12.28-30.75,15.18
	c-15.16,5.06-32.28,11.27-55.81,11.27h-1.89c-23.52,0-40.64-6.21-55.81-11.27c-8.7-2.9-28.37-12.25-30.75-15.18
	c0,0-2.06-4.26-0.08-6.13c2.02-1.89,12.18-1.58,16.41-8.26c4.61-7.28,18.83-20,28.59-25.83c12.48-7.46,37.05-11.62,41.23-11.62
	H101.35z"/>
<path class="st0" d="M101,663.54c4.17,0,35.67-1.62,52.61,11.37c10.62,8.14,16.86,21.66,19.36,26.32
	c3.15,5.87,10.04,7.52,13.41,9.77c2.98,1.99-3.14,6.12-3.14,6.12c-8.6,5.81-23.65,11.87-32.44,14.23
	c-15.97,4.3-26.72,5.18-50.21,5.18H99.4c-23.49,0-34.24-0.87-50.21-5.18c-8.79-2.37-23.84-8.42-32.44-14.23c0,0-6.12-4.14-3.14-6.12
	c3.36-2.24,10.26-3.9,13.41-9.77c2.5-4.66,8.75-18.18,19.36-26.32c16.94-12.99,48.44-11.37,52.61-11.37H101z"/>
<path class="st0" d="M101.27,853.43c3.85,0,29.51-0.44,46.68,10.64c8.52,5.5,21.48,16.08,23.16,30.9
	c1.69,14.89-9.94,22.08,2.74,27.34c2.04,0.85-1.19,6-1.19,6c-4.45,8.46-24.85,13.29-25.96,13.58c-6.64,1.71-24.4,4.4-45.82,4.4H99.1
	c-21.42,0-39.18-2.68-45.82-4.4c-1.11-0.29-21.5-5.11-25.96-13.58c0,0-3.23-5.16-1.19-6c12.68-5.26,1.06-12.45,2.74-27.34
	c1.68-14.82,14.64-25.4,23.16-30.9c17.17-11.08,42.83-10.64,46.68-10.64H101.27z"/>
<path class="st0" d="M100.89,1054.98c4.21,0,27.34-1.7,44.63,8.55c9.34,5.53,23.32,13.51,23.14,39.2
	c-0.12,17.23-20.93,25.82-9.65,34.34c1.94,1.46,1.5,4.26,1.5,4.26c-8.27,7.48-34.43,7.21-35.67,7.28c-7.68,0.45-12.15-0.2-24.37-0.2
	h-0.95c-12.21,0-16.68,0.65-24.37,0.2c-1.24-0.07-27.4,0.2-35.67-7.28c0,0-0.43-2.8,1.5-4.26c11.28-8.52-9.53-17.12-9.65-34.34
	c-0.18-25.69,13.8-33.67,23.14-39.2c17.29-10.25,40.42-8.55,44.63-8.55H100.89z"/>
<path class="st0" d="M100.56,1256.38c4.32,0,11.85,1.17,15.87,2.22c4.51,1.18,14.52,7.46,18.5,9.79
	c5.04,2.95,13.16,3.97,25.49,13.94c9.63,7.79,16.64,13.39,14.89,27.79c-0.77,6.37-10.76,9.79-12.81,12.93
	c-9.61,14.68-37.63,21.98-61.94,21.98h-1.12c-24.31,0-52.33-7.29-61.94-21.98c-2.06-3.14-12.04-6.56-12.81-12.93
	c-1.74-14.4,5.26-20,14.89-27.79c12.33-9.97,20.46-10.99,25.49-13.94c3.98-2.33,13.99-8.61,18.5-9.79
	c4.02-1.05,11.55-2.22,15.87-2.22H100.56z"/>
<g id="Frame_1">
	<path class="st0" d="M101.22,59.67c4.58,0,9.63,0.06,13.9,1.09c4.78,1.16,14.58,5.88,18.8,8.17c5.34,2.9,17.71,3.81,30.79,13.62
		c10.22,7.66,16.2,21.8,16.07,34.87c-0.02,2.51-9.17,9.46-18.25,13.62c-16.07,7.36-35.52,8.72-61.3,8.72h-2.45
		c-25.78,0-45.23-1.36-61.3-8.72c-9.09-4.16-18.23-11.11-18.25-13.62c-0.13-13.08,5.86-27.21,16.07-34.87
		c13.08-9.81,25.45-10.72,30.79-13.62c4.22-2.29,14.02-7.01,18.8-8.17c4.26-1.03,9.31-1.09,13.9-1.09L101.22,59.67L101.22,59.67z"/>
</g>
</svg>
